<mxfile host="app.diagrams.net" modified="2021-02-23T07:47:57.544Z" agent="5.0 (Windows NT 10.0; Win64; x64) AppleWebKit/537.36 (KHTML, like Gecko) Chrome/87.0.4280.88 Safari/537.36" etag="p7eKAmwamZXYO-seyNvH" version="14.2.4" type="github">
  <diagram id="qXevfDHyWFpe-_Mp6ckI" name="第 1 页">
    <mxGraphModel dx="4151" dy="1528" grid="1" gridSize="10" guides="1" tooltips="1" connect="1" arrows="1" fold="1" page="1" pageScale="1" pageWidth="827" pageHeight="1169" math="0" shadow="0">
      <root>
        <mxCell id="0" />
        <mxCell id="1" parent="0" />
        <mxCell id="p4ycmnP8Yulpi8MWmz0l-1" value="" style="rounded=0;whiteSpace=wrap;html=1;shadow=0;glass=0;sketch=0;fillColor=#f5f5f5;fontColor=#333333;strokeColor=none;" parent="1" vertex="1">
          <mxGeometry x="-60" y="330" width="490" height="870" as="geometry" />
        </mxCell>
        <mxCell id="p4ycmnP8Yulpi8MWmz0l-2" value="" style="rounded=1;whiteSpace=wrap;html=1;shadow=0;dashed=1;strokeColor=#000000;fillColor=none;" parent="1" vertex="1">
          <mxGeometry x="470" y="350" width="160" height="830" as="geometry" />
        </mxCell>
        <mxCell id="p4ycmnP8Yulpi8MWmz0l-3" value="工业数据湖" style="rounded=0;whiteSpace=wrap;html=1;fillColor=#d5e8d4;strokeColor=none;shadow=0;" parent="1" vertex="1">
          <mxGeometry x="68.5" y="400" width="240" height="100" as="geometry" />
        </mxCell>
        <mxCell id="p4ycmnP8Yulpi8MWmz0l-4" style="edgeStyle=orthogonalEdgeStyle;rounded=0;orthogonalLoop=1;jettySize=auto;html=1;exitX=0.5;exitY=1;exitDx=0;exitDy=0;entryX=0.5;entryY=0;entryDx=0;entryDy=0;curved=1;" parent="1" source="p4ycmnP8Yulpi8MWmz0l-6" target="p4ycmnP8Yulpi8MWmz0l-16" edge="1">
          <mxGeometry relative="1" as="geometry" />
        </mxCell>
        <mxCell id="p4ycmnP8Yulpi8MWmz0l-5" style="edgeStyle=orthogonalEdgeStyle;curved=1;rounded=0;orthogonalLoop=1;jettySize=auto;html=1;exitX=1;exitY=0.5;exitDx=0;exitDy=0;entryX=0;entryY=0.25;entryDx=0;entryDy=0;" parent="1" source="p4ycmnP8Yulpi8MWmz0l-6" target="p4ycmnP8Yulpi8MWmz0l-2" edge="1">
          <mxGeometry relative="1" as="geometry" />
        </mxCell>
        <mxCell id="p4ycmnP8Yulpi8MWmz0l-6" value="数据访问" style="rounded=0;whiteSpace=wrap;html=1;fillColor=#ffe6cc;strokeColor=none;shadow=0;" parent="1" vertex="1">
          <mxGeometry x="318.5" y="400" width="90" height="100" as="geometry" />
        </mxCell>
        <mxCell id="p4ycmnP8Yulpi8MWmz0l-7" style="edgeStyle=orthogonalEdgeStyle;curved=1;rounded=0;orthogonalLoop=1;jettySize=auto;html=1;entryX=0.5;entryY=0;entryDx=0;entryDy=0;" parent="1" source="p4ycmnP8Yulpi8MWmz0l-16" target="p4ycmnP8Yulpi8MWmz0l-10" edge="1">
          <mxGeometry relative="1" as="geometry" />
        </mxCell>
        <mxCell id="p4ycmnP8Yulpi8MWmz0l-8" value="元数据管理" style="rounded=0;whiteSpace=wrap;html=1;fillColor=#dae8fc;strokeColor=none;shadow=0;" parent="1" vertex="1">
          <mxGeometry x="-40" y="350" width="100" height="830" as="geometry" />
        </mxCell>
        <mxCell id="p4ycmnP8Yulpi8MWmz0l-9" value="" style="group" parent="1" vertex="1" connectable="0">
          <mxGeometry x="70" y="840" width="340" height="160" as="geometry" />
        </mxCell>
        <mxCell id="p4ycmnP8Yulpi8MWmz0l-10" value="" style="rounded=0;whiteSpace=wrap;html=1;fillColor=#f8cecc;strokeColor=none;shadow=0;" parent="p4ycmnP8Yulpi8MWmz0l-9" vertex="1">
          <mxGeometry width="340" height="140" as="geometry" />
        </mxCell>
        <mxCell id="p4ycmnP8Yulpi8MWmz0l-11" value="" style="shape=cylinder3;whiteSpace=wrap;html=1;boundedLbl=1;backgroundOutline=1;size=15;rounded=0;dashed=1;" parent="p4ycmnP8Yulpi8MWmz0l-9" vertex="1">
          <mxGeometry x="30" y="50" width="70" height="60" as="geometry" />
        </mxCell>
        <mxCell id="p4ycmnP8Yulpi8MWmz0l-12" value="" style="shape=cylinder3;whiteSpace=wrap;html=1;boundedLbl=1;backgroundOutline=1;size=15;rounded=0;dashed=1;" parent="p4ycmnP8Yulpi8MWmz0l-9" vertex="1">
          <mxGeometry x="135" y="50" width="70" height="60" as="geometry" />
        </mxCell>
        <mxCell id="p4ycmnP8Yulpi8MWmz0l-13" value="" style="shape=cylinder3;whiteSpace=wrap;html=1;boundedLbl=1;backgroundOutline=1;size=15;rounded=0;dashed=1;" parent="p4ycmnP8Yulpi8MWmz0l-9" vertex="1">
          <mxGeometry x="240" y="50" width="70" height="60" as="geometry" />
        </mxCell>
        <mxCell id="p4ycmnP8Yulpi8MWmz0l-14" value="数据仓库" style="text;html=1;strokeColor=none;fillColor=none;align=center;verticalAlign=middle;whiteSpace=wrap;rounded=0;" parent="p4ycmnP8Yulpi8MWmz0l-9" vertex="1">
          <mxGeometry x="270" y="10" width="60" height="20" as="geometry" />
        </mxCell>
        <mxCell id="p4ycmnP8Yulpi8MWmz0l-15" value="" style="group;fillColor=#fff2cc;" parent="1" vertex="1" connectable="0">
          <mxGeometry x="70" y="560" width="340" height="240" as="geometry" />
        </mxCell>
        <mxCell id="p4ycmnP8Yulpi8MWmz0l-16" value="" style="rounded=0;whiteSpace=wrap;html=1;fillColor=#fff2cc;strokeColor=none;shadow=0;" parent="p4ycmnP8Yulpi8MWmz0l-15" vertex="1">
          <mxGeometry y="-10" width="340" height="250" as="geometry" />
        </mxCell>
        <mxCell id="p4ycmnP8Yulpi8MWmz0l-17" value="数据转换处理" style="rounded=1;whiteSpace=wrap;html=1;dashed=1;" parent="p4ycmnP8Yulpi8MWmz0l-15" vertex="1">
          <mxGeometry x="30" y="25" width="120" height="30" as="geometry" />
        </mxCell>
        <mxCell id="p4ycmnP8Yulpi8MWmz0l-18" value="数据标准管理" style="rounded=1;whiteSpace=wrap;html=1;dashed=1;" parent="p4ycmnP8Yulpi8MWmz0l-15" vertex="1">
          <mxGeometry x="70" y="65" width="120" height="30" as="geometry" />
        </mxCell>
        <mxCell id="p4ycmnP8Yulpi8MWmz0l-19" value="数据质量管理" style="rounded=1;whiteSpace=wrap;html=1;dashed=1;" parent="p4ycmnP8Yulpi8MWmz0l-15" vertex="1">
          <mxGeometry x="110" y="105" width="120" height="30" as="geometry" />
        </mxCell>
        <mxCell id="p4ycmnP8Yulpi8MWmz0l-20" value="数据审计管理" style="rounded=1;whiteSpace=wrap;html=1;dashed=1;" parent="p4ycmnP8Yulpi8MWmz0l-15" vertex="1">
          <mxGeometry x="150" y="145" width="120" height="30" as="geometry" />
        </mxCell>
        <mxCell id="p4ycmnP8Yulpi8MWmz0l-21" value="全链路数据监控" style="rounded=1;whiteSpace=wrap;html=1;dashed=1;" parent="p4ycmnP8Yulpi8MWmz0l-15" vertex="1">
          <mxGeometry x="190" y="185" width="120" height="30" as="geometry" />
        </mxCell>
        <mxCell id="p4ycmnP8Yulpi8MWmz0l-22" value="数据治理" style="text;html=1;strokeColor=none;fillColor=none;align=center;verticalAlign=middle;whiteSpace=wrap;rounded=0;" parent="p4ycmnP8Yulpi8MWmz0l-15" vertex="1">
          <mxGeometry x="270" width="60" height="20" as="geometry" />
        </mxCell>
        <mxCell id="p4ycmnP8Yulpi8MWmz0l-23" value="" style="group;fontSize=10;" parent="1" vertex="1" connectable="0">
          <mxGeometry x="70" y="990" width="340" height="190" as="geometry" />
        </mxCell>
        <mxCell id="p4ycmnP8Yulpi8MWmz0l-24" value="" style="rounded=0;whiteSpace=wrap;html=1;fillColor=#e1d5e7;strokeColor=none;shadow=0;" parent="p4ycmnP8Yulpi8MWmz0l-23" vertex="1">
          <mxGeometry y="30" width="340" height="160" as="geometry" />
        </mxCell>
        <mxCell id="p4ycmnP8Yulpi8MWmz0l-25" value="特征工程" style="rounded=1;whiteSpace=wrap;html=1;dashed=1;" parent="p4ycmnP8Yulpi8MWmz0l-23" vertex="1">
          <mxGeometry x="70" y="80" width="120" height="30" as="geometry" />
        </mxCell>
        <mxCell id="p4ycmnP8Yulpi8MWmz0l-26" value="模型工厂" style="rounded=1;whiteSpace=wrap;html=1;dashed=1;" parent="p4ycmnP8Yulpi8MWmz0l-23" vertex="1">
          <mxGeometry x="134" y="120" width="120" height="30" as="geometry" />
        </mxCell>
        <mxCell id="p4ycmnP8Yulpi8MWmz0l-27" value="数据分析与挖掘" style="text;html=1;strokeColor=none;fillColor=none;align=center;verticalAlign=middle;whiteSpace=wrap;rounded=0;" parent="p4ycmnP8Yulpi8MWmz0l-23" vertex="1">
          <mxGeometry x="240" y="40" width="90" height="20" as="geometry" />
        </mxCell>
        <mxCell id="p4ycmnP8Yulpi8MWmz0l-28" value="清华合作" style="rounded=1;whiteSpace=wrap;html=1;shadow=0;opacity=70;dashed=1;strokeColor=none;fillColor=none;fontSize=10;fontStyle=2;fontColor=#666666;" parent="p4ycmnP8Yulpi8MWmz0l-23" vertex="1">
          <mxGeometry x="260" y="150" width="70" height="30" as="geometry" />
        </mxCell>
        <mxCell id="p4ycmnP8Yulpi8MWmz0l-29" style="edgeStyle=orthogonalEdgeStyle;curved=1;rounded=0;orthogonalLoop=1;jettySize=auto;html=1;exitX=0.5;exitY=1;exitDx=0;exitDy=0;entryX=0.5;entryY=0;entryDx=0;entryDy=0;" parent="1" source="p4ycmnP8Yulpi8MWmz0l-10" target="p4ycmnP8Yulpi8MWmz0l-24" edge="1">
          <mxGeometry relative="1" as="geometry" />
        </mxCell>
        <mxCell id="p4ycmnP8Yulpi8MWmz0l-30" value="数据可视化" style="rounded=1;whiteSpace=wrap;html=1;fillColor=#b0e3e6;strokeColor=none;shadow=0;" parent="1" vertex="1">
          <mxGeometry x="490" y="780" width="120" height="380" as="geometry" />
        </mxCell>
        <mxCell id="p4ycmnP8Yulpi8MWmz0l-31" value="智能应用" style="rounded=1;whiteSpace=wrap;html=1;shadow=0;fillColor=#bac8d3;strokeColor=none;" parent="1" vertex="1">
          <mxGeometry x="490" y="370" width="120" height="380" as="geometry" />
        </mxCell>
        <mxCell id="p4ycmnP8Yulpi8MWmz0l-32" style="edgeStyle=orthogonalEdgeStyle;curved=1;rounded=0;orthogonalLoop=1;jettySize=auto;html=1;entryX=0;entryY=0.75;entryDx=0;entryDy=0;" parent="1" source="p4ycmnP8Yulpi8MWmz0l-24" target="p4ycmnP8Yulpi8MWmz0l-2" edge="1">
          <mxGeometry relative="1" as="geometry" />
        </mxCell>
        <mxCell id="p4ycmnP8Yulpi8MWmz0l-33" style="edgeStyle=orthogonalEdgeStyle;curved=1;rounded=0;orthogonalLoop=1;jettySize=auto;html=1;exitX=1;exitY=0.5;exitDx=0;exitDy=0;entryX=0;entryY=0.5;entryDx=0;entryDy=0;" parent="1" source="p4ycmnP8Yulpi8MWmz0l-10" target="p4ycmnP8Yulpi8MWmz0l-2" edge="1">
          <mxGeometry relative="1" as="geometry" />
        </mxCell>
        <mxCell id="p4ycmnP8Yulpi8MWmz0l-34" value="" style="curved=1;endArrow=none;html=1;endFill=0;" parent="1" target="p4ycmnP8Yulpi8MWmz0l-35" edge="1">
          <mxGeometry width="50" height="50" relative="1" as="geometry">
            <mxPoint x="100" y="1730" as="sourcePoint" />
            <mxPoint x="210" y="1500" as="targetPoint" />
            <Array as="points">
              <mxPoint x="180" y="1650" />
              <mxPoint x="100" y="1570" />
            </Array>
          </mxGeometry>
        </mxCell>
        <mxCell id="p4ycmnP8Yulpi8MWmz0l-35" value="工业数据湖" style="ellipse;shape=cloud;whiteSpace=wrap;html=1;fillColor=#d5e8d4;strokeColor=none;" parent="1" vertex="1">
          <mxGeometry x="60" y="1340" width="320" height="150" as="geometry" />
        </mxCell>
        <mxCell id="p4ycmnP8Yulpi8MWmz0l-36" value="" style="curved=1;endArrow=none;html=1;endFill=0;" parent="1" target="p4ycmnP8Yulpi8MWmz0l-35" edge="1">
          <mxGeometry width="50" height="50" relative="1" as="geometry">
            <mxPoint x="125" y="1730" as="sourcePoint" />
            <mxPoint x="235" y="1510" as="targetPoint" />
            <Array as="points">
              <mxPoint x="205" y="1660" />
              <mxPoint x="125" y="1580" />
            </Array>
          </mxGeometry>
        </mxCell>
        <mxCell id="p4ycmnP8Yulpi8MWmz0l-37" value="" style="curved=1;endArrow=none;html=1;endFill=0;" parent="1" edge="1">
          <mxGeometry width="50" height="50" relative="1" as="geometry">
            <mxPoint x="210" y="1730" as="sourcePoint" />
            <mxPoint x="210" y="1500" as="targetPoint" />
            <Array as="points">
              <mxPoint x="250" y="1650" />
              <mxPoint x="180" y="1570" />
            </Array>
          </mxGeometry>
        </mxCell>
        <mxCell id="p4ycmnP8Yulpi8MWmz0l-38" value="" style="curved=1;endArrow=none;html=1;endFill=0;" parent="1" edge="1">
          <mxGeometry width="50" height="50" relative="1" as="geometry">
            <mxPoint x="230" y="1730" as="sourcePoint" />
            <mxPoint x="230" y="1500" as="targetPoint" />
            <Array as="points">
              <mxPoint x="270" y="1650" />
              <mxPoint x="210" y="1570" />
            </Array>
          </mxGeometry>
        </mxCell>
        <mxCell id="p4ycmnP8Yulpi8MWmz0l-39" value="" style="curved=1;endArrow=none;html=1;endFill=0;" parent="1" edge="1">
          <mxGeometry width="50" height="50" relative="1" as="geometry">
            <mxPoint x="320" y="1730" as="sourcePoint" />
            <mxPoint x="260" y="1500" as="targetPoint" />
            <Array as="points">
              <mxPoint x="310" y="1650" />
              <mxPoint x="270" y="1570" />
            </Array>
          </mxGeometry>
        </mxCell>
        <mxCell id="p4ycmnP8Yulpi8MWmz0l-40" value="" style="curved=1;endArrow=none;html=1;endFill=0;" parent="1" edge="1">
          <mxGeometry width="50" height="50" relative="1" as="geometry">
            <mxPoint x="340" y="1730" as="sourcePoint" />
            <mxPoint x="280" y="1490" as="targetPoint" />
            <Array as="points">
              <mxPoint x="330" y="1650" />
              <mxPoint x="290" y="1570" />
            </Array>
          </mxGeometry>
        </mxCell>
        <mxCell id="p4ycmnP8Yulpi8MWmz0l-41" value="数据转换处理" style="rounded=1;whiteSpace=wrap;html=1;fontSize=8;strokeColor=#666666;dashed=1;" parent="1" vertex="1">
          <mxGeometry x="110" y="1540" width="60" height="16" as="geometry" />
        </mxCell>
        <mxCell id="p4ycmnP8Yulpi8MWmz0l-42" value="数据标准管理" style="rounded=1;whiteSpace=wrap;html=1;fontSize=8;strokeColor=#666666;dashed=1;" parent="1" vertex="1">
          <mxGeometry x="110" y="1570" width="60" height="16" as="geometry" />
        </mxCell>
        <mxCell id="p4ycmnP8Yulpi8MWmz0l-43" value="数据质量管理" style="rounded=1;whiteSpace=wrap;html=1;fontSize=8;strokeColor=#666666;dashed=1;" parent="1" vertex="1">
          <mxGeometry x="110" y="1600" width="60" height="16" as="geometry" />
        </mxCell>
        <mxCell id="p4ycmnP8Yulpi8MWmz0l-44" value="数据审计管理" style="rounded=1;whiteSpace=wrap;html=1;fontSize=8;strokeColor=#666666;dashed=1;" parent="1" vertex="1">
          <mxGeometry x="130" y="1640" width="60" height="16" as="geometry" />
        </mxCell>
        <mxCell id="p4ycmnP8Yulpi8MWmz0l-45" value="全链路数据监控" style="rounded=1;whiteSpace=wrap;html=1;fontSize=8;strokeColor=#666666;dashed=1;" parent="1" vertex="1">
          <mxGeometry x="116" y="1690" width="65" height="16" as="geometry" />
        </mxCell>
        <mxCell id="p4ycmnP8Yulpi8MWmz0l-46" value="" style="group" parent="1" vertex="1" connectable="0">
          <mxGeometry x="50" y="1740" width="340" height="140" as="geometry" />
        </mxCell>
        <mxCell id="p4ycmnP8Yulpi8MWmz0l-47" value="" style="rounded=0;whiteSpace=wrap;html=1;fillColor=#f8cecc;strokeColor=none;shadow=0;" parent="p4ycmnP8Yulpi8MWmz0l-46" vertex="1">
          <mxGeometry width="340" height="140" as="geometry" />
        </mxCell>
        <mxCell id="p4ycmnP8Yulpi8MWmz0l-48" value="" style="shape=cylinder3;whiteSpace=wrap;html=1;boundedLbl=1;backgroundOutline=1;size=15;rounded=0;dashed=1;" parent="p4ycmnP8Yulpi8MWmz0l-46" vertex="1">
          <mxGeometry x="30" y="50" width="70" height="60" as="geometry" />
        </mxCell>
        <mxCell id="p4ycmnP8Yulpi8MWmz0l-49" value="" style="shape=cylinder3;whiteSpace=wrap;html=1;boundedLbl=1;backgroundOutline=1;size=15;rounded=0;dashed=1;" parent="p4ycmnP8Yulpi8MWmz0l-46" vertex="1">
          <mxGeometry x="135" y="50" width="70" height="60" as="geometry" />
        </mxCell>
        <mxCell id="p4ycmnP8Yulpi8MWmz0l-50" value="" style="shape=cylinder3;whiteSpace=wrap;html=1;boundedLbl=1;backgroundOutline=1;size=15;rounded=0;dashed=1;" parent="p4ycmnP8Yulpi8MWmz0l-46" vertex="1">
          <mxGeometry x="240" y="50" width="70" height="60" as="geometry" />
        </mxCell>
        <mxCell id="p4ycmnP8Yulpi8MWmz0l-51" value="数据仓库" style="text;html=1;strokeColor=none;fillColor=none;align=center;verticalAlign=middle;whiteSpace=wrap;rounded=0;" parent="p4ycmnP8Yulpi8MWmz0l-46" vertex="1">
          <mxGeometry x="270" y="10" width="60" height="20" as="geometry" />
        </mxCell>
        <mxCell id="p4ycmnP8Yulpi8MWmz0l-52" value="数据转换处理" style="rounded=1;whiteSpace=wrap;html=1;fontSize=8;strokeColor=#666666;dashed=1;" parent="1" vertex="1">
          <mxGeometry x="181" y="1554" width="60" height="16" as="geometry" />
        </mxCell>
        <mxCell id="p4ycmnP8Yulpi8MWmz0l-53" value="数据标准管理" style="rounded=1;whiteSpace=wrap;html=1;fontSize=8;strokeColor=#666666;dashed=1;" parent="1" vertex="1">
          <mxGeometry x="190" y="1584" width="60" height="16" as="geometry" />
        </mxCell>
        <mxCell id="p4ycmnP8Yulpi8MWmz0l-54" value="数据质量管理" style="rounded=1;whiteSpace=wrap;html=1;fontSize=8;strokeColor=#666666;dashed=1;" parent="1" vertex="1">
          <mxGeometry x="200" y="1609" width="60" height="16" as="geometry" />
        </mxCell>
        <mxCell id="p4ycmnP8Yulpi8MWmz0l-55" value="数据审计管理" style="rounded=1;whiteSpace=wrap;html=1;fontSize=8;strokeColor=#666666;dashed=1;" parent="1" vertex="1">
          <mxGeometry x="214" y="1650" width="60" height="16" as="geometry" />
        </mxCell>
        <mxCell id="p4ycmnP8Yulpi8MWmz0l-56" value="全链路数据监控" style="rounded=1;whiteSpace=wrap;html=1;fontSize=8;strokeColor=#666666;dashed=1;" parent="1" vertex="1">
          <mxGeometry x="206" y="1690" width="65" height="16" as="geometry" />
        </mxCell>
        <mxCell id="p4ycmnP8Yulpi8MWmz0l-57" value="数据转换处理" style="rounded=1;whiteSpace=wrap;html=1;fontSize=8;strokeColor=#666666;dashed=1;" parent="1" vertex="1">
          <mxGeometry x="253.5" y="1556" width="60" height="16" as="geometry" />
        </mxCell>
        <mxCell id="p4ycmnP8Yulpi8MWmz0l-58" value="数据标准管理" style="rounded=1;whiteSpace=wrap;html=1;fontSize=8;strokeColor=#666666;dashed=1;" parent="1" vertex="1">
          <mxGeometry x="260" y="1584" width="60" height="16" as="geometry" />
        </mxCell>
        <mxCell id="p4ycmnP8Yulpi8MWmz0l-59" value="数据质量管理" style="rounded=1;whiteSpace=wrap;html=1;fontSize=8;strokeColor=#666666;dashed=1;" parent="1" vertex="1">
          <mxGeometry x="271" y="1616" width="60" height="16" as="geometry" />
        </mxCell>
        <mxCell id="p4ycmnP8Yulpi8MWmz0l-60" value="数据审计管理" style="rounded=1;whiteSpace=wrap;html=1;fontSize=8;strokeColor=#666666;dashed=1;" parent="1" vertex="1">
          <mxGeometry x="284" y="1650" width="60" height="16" as="geometry" />
        </mxCell>
        <mxCell id="p4ycmnP8Yulpi8MWmz0l-61" value="全链路数据监控" style="rounded=1;whiteSpace=wrap;html=1;fontSize=8;strokeColor=#666666;dashed=1;" parent="1" vertex="1">
          <mxGeometry x="291" y="1690" width="65" height="16" as="geometry" />
        </mxCell>
        <mxCell id="p4ycmnP8Yulpi8MWmz0l-62" value="" style="html=1;endArrow=none;endFill=0;fontSize=8;dashed=1;strokeWidth=2;" parent="1" edge="1">
          <mxGeometry width="100" relative="1" as="geometry">
            <mxPoint x="-60" y="1290" as="sourcePoint" />
            <mxPoint x="1030" y="1290" as="targetPoint" />
            <Array as="points">
              <mxPoint x="380" y="1290" />
            </Array>
          </mxGeometry>
        </mxCell>
        <mxCell id="p4ycmnP8Yulpi8MWmz0l-63" value="元数据管理" style="rounded=0;whiteSpace=wrap;html=1;fillColor=#dae8fc;strokeColor=none;shadow=0;" parent="1" vertex="1">
          <mxGeometry x="-60" y="1350" width="100" height="900" as="geometry" />
        </mxCell>
        <mxCell id="p4ycmnP8Yulpi8MWmz0l-64" value="" style="rounded=1;whiteSpace=wrap;html=1;shadow=0;dashed=1;strokeColor=#000000;fillColor=none;" parent="1" vertex="1">
          <mxGeometry x="450" y="1350" width="160" height="900" as="geometry" />
        </mxCell>
        <mxCell id="p4ycmnP8Yulpi8MWmz0l-65" value="数据可视化" style="rounded=1;whiteSpace=wrap;html=1;fillColor=#b0e3e6;strokeColor=none;shadow=0;" parent="1" vertex="1">
          <mxGeometry x="470" y="1810" width="120" height="420" as="geometry" />
        </mxCell>
        <mxCell id="p4ycmnP8Yulpi8MWmz0l-66" value="智能应用" style="rounded=1;whiteSpace=wrap;html=1;shadow=0;fillColor=#bac8d3;strokeColor=none;" parent="1" vertex="1">
          <mxGeometry x="470" y="1370" width="120" height="420" as="geometry" />
        </mxCell>
        <mxCell id="p4ycmnP8Yulpi8MWmz0l-67" value="" style="curved=1;endArrow=none;html=1;endFill=0;" parent="1" edge="1">
          <mxGeometry width="50" height="50" relative="1" as="geometry">
            <mxPoint x="120" y="2050" as="sourcePoint" />
            <mxPoint x="100" y="1898" as="targetPoint" />
            <Array as="points">
              <mxPoint x="140" y="2010" />
              <mxPoint x="90" y="1970" />
            </Array>
          </mxGeometry>
        </mxCell>
        <mxCell id="p4ycmnP8Yulpi8MWmz0l-68" value="" style="curved=1;endArrow=none;html=1;endFill=0;" parent="1" edge="1">
          <mxGeometry width="50" height="50" relative="1" as="geometry">
            <mxPoint x="140" y="2049" as="sourcePoint" />
            <mxPoint x="120" y="1898" as="targetPoint" />
            <Array as="points">
              <mxPoint x="160" y="2010" />
              <mxPoint x="120" y="1969" />
            </Array>
          </mxGeometry>
        </mxCell>
        <mxCell id="p4ycmnP8Yulpi8MWmz0l-69" value="" style="curved=1;endArrow=none;html=1;endFill=0;" parent="1" edge="1">
          <mxGeometry width="50" height="50" relative="1" as="geometry">
            <mxPoint x="230" y="2050" as="sourcePoint" />
            <mxPoint x="211" y="1898" as="targetPoint" />
            <Array as="points">
              <mxPoint x="230" y="2010" />
              <mxPoint x="180" y="1958" />
            </Array>
          </mxGeometry>
        </mxCell>
        <mxCell id="p4ycmnP8Yulpi8MWmz0l-70" value="" style="curved=1;endArrow=none;html=1;endFill=0;" parent="1" edge="1">
          <mxGeometry width="50" height="50" relative="1" as="geometry">
            <mxPoint x="250" y="2050" as="sourcePoint" />
            <mxPoint x="231" y="1898" as="targetPoint" />
            <Array as="points">
              <mxPoint x="250" y="2030" />
              <mxPoint x="200" y="1958" />
            </Array>
          </mxGeometry>
        </mxCell>
        <mxCell id="p4ycmnP8Yulpi8MWmz0l-71" value="" style="curved=1;endArrow=none;html=1;endFill=0;" parent="1" edge="1">
          <mxGeometry width="50" height="50" relative="1" as="geometry">
            <mxPoint x="331" y="2050" as="sourcePoint" />
            <mxPoint x="310" y="1898" as="targetPoint" />
            <Array as="points">
              <mxPoint x="331" y="2038" />
              <mxPoint x="291" y="1958" />
            </Array>
          </mxGeometry>
        </mxCell>
        <mxCell id="p4ycmnP8Yulpi8MWmz0l-72" value="" style="curved=1;endArrow=none;html=1;endFill=0;" parent="1" edge="1">
          <mxGeometry width="50" height="50" relative="1" as="geometry">
            <mxPoint x="351" y="2050" as="sourcePoint" />
            <mxPoint x="330" y="1898" as="targetPoint" />
            <Array as="points">
              <mxPoint x="351" y="2038" />
              <mxPoint x="311" y="1958" />
            </Array>
          </mxGeometry>
        </mxCell>
        <mxCell id="p4ycmnP8Yulpi8MWmz0l-73" value="数据转换处理" style="rounded=1;whiteSpace=wrap;html=1;fontSize=8;strokeColor=#666666;dashed=1;" parent="1" vertex="1">
          <mxGeometry x="88" y="1940" width="60" height="16" as="geometry" />
        </mxCell>
        <mxCell id="p4ycmnP8Yulpi8MWmz0l-74" value="数据标准管理" style="rounded=1;whiteSpace=wrap;html=1;fontSize=8;strokeColor=#666666;dashed=1;" parent="1" vertex="1">
          <mxGeometry x="88" y="1967" width="60" height="16" as="geometry" />
        </mxCell>
        <mxCell id="p4ycmnP8Yulpi8MWmz0l-75" value="数据质量管理" style="rounded=1;whiteSpace=wrap;html=1;fontSize=8;strokeColor=#666666;dashed=1;" parent="1" vertex="1">
          <mxGeometry x="102" y="1991.5" width="60" height="16" as="geometry" />
        </mxCell>
        <mxCell id="p4ycmnP8Yulpi8MWmz0l-76" value="全链路数据监控" style="rounded=1;whiteSpace=wrap;html=1;fontSize=8;strokeColor=#666666;dashed=1;" parent="1" vertex="1">
          <mxGeometry x="102" y="2017.5" width="65" height="16" as="geometry" />
        </mxCell>
        <mxCell id="p4ycmnP8Yulpi8MWmz0l-77" value="数据转换处理" style="rounded=1;whiteSpace=wrap;html=1;fontSize=8;strokeColor=#666666;dashed=1;" parent="1" vertex="1">
          <mxGeometry x="181" y="1930" width="60" height="16" as="geometry" />
        </mxCell>
        <mxCell id="p4ycmnP8Yulpi8MWmz0l-78" value="数据标准管理" style="rounded=1;whiteSpace=wrap;html=1;fontSize=8;strokeColor=#666666;dashed=1;" parent="1" vertex="1">
          <mxGeometry x="190" y="1961" width="60" height="16" as="geometry" />
        </mxCell>
        <mxCell id="p4ycmnP8Yulpi8MWmz0l-79" value="数据质量管理" style="rounded=1;whiteSpace=wrap;html=1;fontSize=8;strokeColor=#666666;dashed=1;" parent="1" vertex="1">
          <mxGeometry x="193.5" y="1990" width="60" height="16" as="geometry" />
        </mxCell>
        <mxCell id="p4ycmnP8Yulpi8MWmz0l-80" value="全链路数据监控" style="rounded=1;whiteSpace=wrap;html=1;fontSize=8;strokeColor=#666666;dashed=1;" parent="1" vertex="1">
          <mxGeometry x="206" y="2020.5" width="65" height="16" as="geometry" />
        </mxCell>
        <mxCell id="p4ycmnP8Yulpi8MWmz0l-81" value="数据转换处理" style="rounded=1;whiteSpace=wrap;html=1;fontSize=8;strokeColor=#666666;dashed=1;" parent="1" vertex="1">
          <mxGeometry x="284" y="1930" width="60" height="16" as="geometry" />
        </mxCell>
        <mxCell id="p4ycmnP8Yulpi8MWmz0l-82" value="数据标准管理" style="rounded=1;whiteSpace=wrap;html=1;fontSize=8;strokeColor=#666666;dashed=1;" parent="1" vertex="1">
          <mxGeometry x="284" y="1961" width="60" height="16" as="geometry" />
        </mxCell>
        <mxCell id="p4ycmnP8Yulpi8MWmz0l-83" value="数据质量管理" style="rounded=1;whiteSpace=wrap;html=1;fontSize=8;strokeColor=#666666;dashed=1;" parent="1" vertex="1">
          <mxGeometry x="293.5" y="1990" width="60" height="16" as="geometry" />
        </mxCell>
        <mxCell id="p4ycmnP8Yulpi8MWmz0l-84" value="全链路数据监控" style="rounded=1;whiteSpace=wrap;html=1;fontSize=8;strokeColor=#666666;dashed=1;" parent="1" vertex="1">
          <mxGeometry x="304" y="2020.5" width="65" height="16" as="geometry" />
        </mxCell>
        <mxCell id="p4ycmnP8Yulpi8MWmz0l-85" value="" style="group" parent="1" vertex="1" connectable="0">
          <mxGeometry x="50" y="2060" width="340" height="190" as="geometry" />
        </mxCell>
        <mxCell id="p4ycmnP8Yulpi8MWmz0l-86" value="" style="rounded=0;whiteSpace=wrap;html=1;fillColor=#e1d5e7;strokeColor=none;shadow=0;" parent="p4ycmnP8Yulpi8MWmz0l-85" vertex="1">
          <mxGeometry width="340" height="190" as="geometry" />
        </mxCell>
        <mxCell id="p4ycmnP8Yulpi8MWmz0l-87" value="特征工程" style="rounded=1;whiteSpace=wrap;html=1;dashed=1;" parent="p4ycmnP8Yulpi8MWmz0l-85" vertex="1">
          <mxGeometry x="70" y="60" width="120" height="30" as="geometry" />
        </mxCell>
        <mxCell id="p4ycmnP8Yulpi8MWmz0l-88" value="模型工厂" style="rounded=1;whiteSpace=wrap;html=1;dashed=1;" parent="p4ycmnP8Yulpi8MWmz0l-85" vertex="1">
          <mxGeometry x="130" y="110" width="120" height="30" as="geometry" />
        </mxCell>
        <mxCell id="p4ycmnP8Yulpi8MWmz0l-89" value="数据分析与挖掘" style="text;html=1;strokeColor=none;fillColor=none;align=center;verticalAlign=middle;whiteSpace=wrap;rounded=0;" parent="p4ycmnP8Yulpi8MWmz0l-85" vertex="1">
          <mxGeometry x="240" y="10" width="90" height="20" as="geometry" />
        </mxCell>
        <mxCell id="p4ycmnP8Yulpi8MWmz0l-90" value="" style="curved=1;endArrow=none;html=1;endFill=0;" parent="1" target="p4ycmnP8Yulpi8MWmz0l-35" edge="1">
          <mxGeometry width="50" height="50" relative="1" as="geometry">
            <mxPoint x="440" y="1490" as="sourcePoint" />
            <mxPoint x="380" y="1470" as="targetPoint" />
            <Array as="points">
              <mxPoint x="400" y="1490" />
            </Array>
          </mxGeometry>
        </mxCell>
        <mxCell id="p4ycmnP8Yulpi8MWmz0l-91" value="" style="curved=1;endArrow=none;html=1;endFill=0;" parent="1" edge="1">
          <mxGeometry width="50" height="50" relative="1" as="geometry">
            <mxPoint x="441" y="1474" as="sourcePoint" />
            <mxPoint x="371" y="1444" as="targetPoint" />
            <Array as="points">
              <mxPoint x="401" y="1474" />
            </Array>
          </mxGeometry>
        </mxCell>
        <mxCell id="p4ycmnP8Yulpi8MWmz0l-92" value="" style="curved=1;endArrow=none;html=1;endFill=0;startArrow=openThin;startFill=0;dashed=1;" parent="1" edge="1">
          <mxGeometry width="50" height="50" relative="1" as="geometry">
            <mxPoint x="430" y="1480" as="sourcePoint" />
            <mxPoint x="390" y="1470" as="targetPoint" />
            <Array as="points">
              <mxPoint x="410" y="1480" />
            </Array>
          </mxGeometry>
        </mxCell>
        <mxCell id="p4ycmnP8Yulpi8MWmz0l-93" value="" style="curved=1;endArrow=none;html=1;endFill=0;startArrow=openThin;startFill=0;dashed=1;strokeColor=#666666;" parent="1" edge="1">
          <mxGeometry width="50" height="50" relative="1" as="geometry">
            <mxPoint x="280" y="1540" as="sourcePoint" />
            <mxPoint x="270" y="1500" as="targetPoint" />
            <Array as="points">
              <mxPoint x="270" y="1520" />
            </Array>
          </mxGeometry>
        </mxCell>
        <mxCell id="p4ycmnP8Yulpi8MWmz0l-94" value="" style="curved=1;endArrow=none;html=1;endFill=0;startArrow=openThin;startFill=0;dashed=1;strokeColor=#666666;" parent="1" edge="1">
          <mxGeometry width="50" height="50" relative="1" as="geometry">
            <mxPoint x="208" y="1540" as="sourcePoint" />
            <mxPoint x="218" y="1510" as="targetPoint" />
            <Array as="points">
              <mxPoint x="214" y="1524" />
            </Array>
          </mxGeometry>
        </mxCell>
        <mxCell id="p4ycmnP8Yulpi8MWmz0l-95" value="" style="curved=1;endArrow=none;html=1;endFill=0;startArrow=openThin;startFill=0;dashed=1;strokeColor=#666666;" parent="1" edge="1">
          <mxGeometry width="50" height="50" relative="1" as="geometry">
            <mxPoint x="147" y="1525" as="sourcePoint" />
            <mxPoint x="167" y="1495" as="targetPoint" />
            <Array as="points" />
          </mxGeometry>
        </mxCell>
        <mxCell id="p4ycmnP8Yulpi8MWmz0l-96" value="" style="curved=1;endArrow=none;html=1;endFill=0;startArrow=openThin;startFill=0;dashed=1;strokeColor=#666666;" parent="1" edge="1">
          <mxGeometry width="50" height="50" relative="1" as="geometry">
            <mxPoint x="110" y="1932" as="sourcePoint" />
            <mxPoint x="110" y="1902" as="targetPoint" />
            <Array as="points">
              <mxPoint x="110" y="1922" />
            </Array>
          </mxGeometry>
        </mxCell>
        <mxCell id="p4ycmnP8Yulpi8MWmz0l-97" value="" style="curved=1;endArrow=none;html=1;endFill=0;startArrow=openThin;startFill=0;dashed=1;strokeColor=#666666;exitX=0.5;exitY=0;exitDx=0;exitDy=0;" parent="1" edge="1">
          <mxGeometry width="50" height="50" relative="1" as="geometry">
            <mxPoint x="209" y="1924" as="sourcePoint" />
            <mxPoint x="218" y="1904" as="targetPoint" />
            <Array as="points">
              <mxPoint x="218" y="1904" />
            </Array>
          </mxGeometry>
        </mxCell>
        <mxCell id="p4ycmnP8Yulpi8MWmz0l-98" value="" style="curved=1;endArrow=none;html=1;endFill=0;startArrow=openThin;startFill=0;dashed=1;strokeColor=#666666;" parent="1" edge="1">
          <mxGeometry width="50" height="50" relative="1" as="geometry">
            <mxPoint x="314" y="1920" as="sourcePoint" />
            <mxPoint x="320" y="1900" as="targetPoint" />
            <Array as="points">
              <mxPoint x="320" y="1910" />
            </Array>
          </mxGeometry>
        </mxCell>
        <mxCell id="p4ycmnP8Yulpi8MWmz0l-99" value="" style="curved=1;endArrow=none;html=1;endFill=0;" parent="1" edge="1">
          <mxGeometry width="50" height="50" relative="1" as="geometry">
            <mxPoint x="440" y="1820" as="sourcePoint" />
            <mxPoint x="399" y="1820" as="targetPoint" />
            <Array as="points">
              <mxPoint x="409" y="1824" />
            </Array>
          </mxGeometry>
        </mxCell>
        <mxCell id="p4ycmnP8Yulpi8MWmz0l-100" value="" style="curved=1;endArrow=none;html=1;endFill=0;" parent="1" edge="1">
          <mxGeometry width="50" height="50" relative="1" as="geometry">
            <mxPoint x="440" y="1808" as="sourcePoint" />
            <mxPoint x="399" y="1790" as="targetPoint" />
            <Array as="points">
              <mxPoint x="410" y="1808" />
            </Array>
          </mxGeometry>
        </mxCell>
        <mxCell id="p4ycmnP8Yulpi8MWmz0l-101" value="" style="curved=1;endArrow=none;html=1;endFill=0;startArrow=openThin;startFill=0;dashed=1;" parent="1" edge="1">
          <mxGeometry width="50" height="50" relative="1" as="geometry">
            <mxPoint x="435" y="1814" as="sourcePoint" />
            <mxPoint x="405" y="1810" as="targetPoint" />
            <Array as="points">
              <mxPoint x="415" y="1814" />
            </Array>
          </mxGeometry>
        </mxCell>
        <mxCell id="p4ycmnP8Yulpi8MWmz0l-102" value="" style="curved=1;endArrow=none;html=1;endFill=0;" parent="1" edge="1">
          <mxGeometry width="50" height="50" relative="1" as="geometry">
            <mxPoint x="442" y="2170" as="sourcePoint" />
            <mxPoint x="401" y="2170" as="targetPoint" />
            <Array as="points">
              <mxPoint x="411" y="2174" />
            </Array>
          </mxGeometry>
        </mxCell>
        <mxCell id="p4ycmnP8Yulpi8MWmz0l-103" value="" style="curved=1;endArrow=none;html=1;endFill=0;" parent="1" edge="1">
          <mxGeometry width="50" height="50" relative="1" as="geometry">
            <mxPoint x="442" y="2158" as="sourcePoint" />
            <mxPoint x="401" y="2140" as="targetPoint" />
            <Array as="points">
              <mxPoint x="412" y="2158" />
            </Array>
          </mxGeometry>
        </mxCell>
        <mxCell id="p4ycmnP8Yulpi8MWmz0l-104" value="" style="curved=1;endArrow=none;html=1;endFill=0;startArrow=openThin;startFill=0;dashed=1;" parent="1" edge="1">
          <mxGeometry width="50" height="50" relative="1" as="geometry">
            <mxPoint x="437" y="2164" as="sourcePoint" />
            <mxPoint x="407" y="2160" as="targetPoint" />
            <Array as="points">
              <mxPoint x="417" y="2164" />
            </Array>
          </mxGeometry>
        </mxCell>
        <mxCell id="p4ycmnP8Yulpi8MWmz0l-105" value="可结合第三方库" style="rounded=1;whiteSpace=wrap;html=1;shadow=0;opacity=70;dashed=1;strokeColor=none;fillColor=none;fontSize=10;fontStyle=2;fontColor=#666666;" parent="1" vertex="1">
          <mxGeometry x="507.5" y="1120" width="85" height="30" as="geometry" />
        </mxCell>
        <mxCell id="p4ycmnP8Yulpi8MWmz0l-106" style="edgeStyle=orthogonalEdgeStyle;curved=1;rounded=0;orthogonalLoop=1;jettySize=auto;html=1;exitX=0.5;exitY=1;exitDx=0;exitDy=0;entryX=0.5;entryY=0;entryDx=0;entryDy=0;" parent="1" source="p4ycmnP8Yulpi8MWmz0l-107" target="p4ycmnP8Yulpi8MWmz0l-1" edge="1">
          <mxGeometry relative="1" as="geometry" />
        </mxCell>
        <mxCell id="p4ycmnP8Yulpi8MWmz0l-107" value="" style="rounded=0;whiteSpace=wrap;html=1;shadow=0;dashed=1;fillColor=#f5f5f5;fontColor=#333333;strokeColor=none;" parent="1" vertex="1">
          <mxGeometry x="-60" y="120" width="490" height="160" as="geometry" />
        </mxCell>
        <mxCell id="p4ycmnP8Yulpi8MWmz0l-108" value="" style="rounded=0;whiteSpace=wrap;html=1;fillColor=#e1d5e7;strokeColor=none;" parent="1" vertex="1">
          <mxGeometry x="-40" y="140" width="450" height="120" as="geometry" />
        </mxCell>
        <mxCell id="p4ycmnP8Yulpi8MWmz0l-109" value="数采融合、数采治理" style="rounded=0;whiteSpace=wrap;html=1;dashed=1;strokeWidth=1;fontSize=12;align=center;fillColor=#b1ddf0;strokeColor=none;" parent="1" vertex="1">
          <mxGeometry x="70" y="350" width="340" height="40" as="geometry" />
        </mxCell>
        <mxCell id="p4ycmnP8Yulpi8MWmz0l-110" value="" style="group;fillColor=#f5f5f5;fontColor=#333333;" parent="1" vertex="1" connectable="0">
          <mxGeometry x="690" y="340" width="330" height="840" as="geometry" />
        </mxCell>
        <mxCell id="p4ycmnP8Yulpi8MWmz0l-111" value="" style="rounded=0;whiteSpace=wrap;html=1;shadow=0;dashed=1;strokeWidth=1;glass=0;sketch=0;fillColor=#f5f5f5;fontColor=#333333;strokeColor=none;" parent="p4ycmnP8Yulpi8MWmz0l-110" vertex="1">
          <mxGeometry width="330" height="840" as="geometry" />
        </mxCell>
        <mxCell id="p4ycmnP8Yulpi8MWmz0l-112" value="" style="rounded=0;whiteSpace=wrap;html=1;align=center;fontSize=12;fillColor=#cce5ff;strokeColor=none;" parent="p4ycmnP8Yulpi8MWmz0l-110" vertex="1">
          <mxGeometry x="20" y="21.538461538461537" width="290" height="506.15384615384613" as="geometry" />
        </mxCell>
        <mxCell id="p4ycmnP8Yulpi8MWmz0l-113" value="决策支撑" style="text;html=1;strokeColor=none;fillColor=none;align=center;verticalAlign=middle;whiteSpace=wrap;rounded=0;" parent="p4ycmnP8Yulpi8MWmz0l-110" vertex="1">
          <mxGeometry x="240" y="32.30769230769231" width="60" height="21.538461538461537" as="geometry" />
        </mxCell>
        <mxCell id="p4ycmnP8Yulpi8MWmz0l-114" value="&amp;nbsp;&amp;nbsp;&amp;nbsp; 描述：发生了什么" style="rounded=1;whiteSpace=wrap;html=1;fontSize=12;align=left;dashed=1;" parent="p4ycmnP8Yulpi8MWmz0l-110" vertex="1">
          <mxGeometry x="40" y="75.38461538461539" width="250" height="53.84615384615385" as="geometry" />
        </mxCell>
        <mxCell id="p4ycmnP8Yulpi8MWmz0l-115" value="&amp;nbsp;&amp;nbsp;&amp;nbsp; 诊断：为什么发生" style="rounded=1;whiteSpace=wrap;html=1;fontSize=12;align=left;dashed=1;" parent="p4ycmnP8Yulpi8MWmz0l-110" vertex="1">
          <mxGeometry x="40" y="150.76923076923077" width="250" height="53.84615384615385" as="geometry" />
        </mxCell>
        <mxCell id="p4ycmnP8Yulpi8MWmz0l-116" value="&amp;nbsp;&amp;nbsp;&amp;nbsp; 预测：什么将发生" style="rounded=1;whiteSpace=wrap;html=1;fontSize=12;align=left;dashed=1;" parent="p4ycmnP8Yulpi8MWmz0l-110" vertex="1">
          <mxGeometry x="40" y="226.15384615384613" width="250" height="53.84615384615385" as="geometry" />
        </mxCell>
        <mxCell id="p4ycmnP8Yulpi8MWmz0l-117" value="&amp;nbsp;&amp;nbsp;&amp;nbsp; 指导：该做什么" style="rounded=1;whiteSpace=wrap;html=1;fontSize=12;align=left;dashed=1;" parent="p4ycmnP8Yulpi8MWmz0l-110" vertex="1">
          <mxGeometry x="40" y="301.53846153846155" width="250" height="53.84615384615385" as="geometry" />
        </mxCell>
        <mxCell id="p4ycmnP8Yulpi8MWmz0l-118" value="行动" style="rounded=0;whiteSpace=wrap;html=1;dashed=1;fontSize=12;align=center;fillColor=#cce5ff;strokeColor=none;" parent="p4ycmnP8Yulpi8MWmz0l-110" vertex="1">
          <mxGeometry x="20" y="624.6153846153846" width="290" height="193.84615384615384" as="geometry" />
        </mxCell>
        <mxCell id="p4ycmnP8Yulpi8MWmz0l-119" style="edgeStyle=orthogonalEdgeStyle;rounded=0;orthogonalLoop=1;jettySize=auto;html=1;exitX=0.5;exitY=1;exitDx=0;exitDy=0;entryX=0.5;entryY=0;entryDx=0;entryDy=0;fontSize=12;" parent="p4ycmnP8Yulpi8MWmz0l-110" source="p4ycmnP8Yulpi8MWmz0l-112" target="p4ycmnP8Yulpi8MWmz0l-118" edge="1">
          <mxGeometry relative="1" as="geometry" />
        </mxCell>
        <mxCell id="p4ycmnP8Yulpi8MWmz0l-120" value="&lt;div&gt;决策依据&lt;/div&gt;" style="text;html=1;strokeColor=none;fillColor=none;align=left;verticalAlign=middle;whiteSpace=wrap;rounded=0;dashed=1;fontSize=12;" parent="p4ycmnP8Yulpi8MWmz0l-110" vertex="1">
          <mxGeometry x="180" y="560" width="100" height="32.30769230769231" as="geometry" />
        </mxCell>
        <mxCell id="p4ycmnP8Yulpi8MWmz0l-121" value="数据感知" style="text;html=1;strokeColor=none;fillColor=none;align=center;verticalAlign=middle;whiteSpace=wrap;rounded=0;" parent="1" vertex="1">
          <mxGeometry x="344" y="149.99769230769232" width="60" height="21.538461538461537" as="geometry" />
        </mxCell>
        <mxCell id="p4ycmnP8Yulpi8MWmz0l-122" value="硬感知" style="rounded=1;whiteSpace=wrap;html=1;fontSize=12;align=center;dashed=1;" parent="1" vertex="1">
          <mxGeometry x="-19" y="190" width="200" height="40" as="geometry" />
        </mxCell>
        <mxCell id="p4ycmnP8Yulpi8MWmz0l-123" value="软感知" style="rounded=1;whiteSpace=wrap;html=1;fontSize=12;align=center;dashed=1;" parent="1" vertex="1">
          <mxGeometry x="190" y="190" width="200" height="40" as="geometry" />
        </mxCell>
        <mxCell id="p4ycmnP8Yulpi8MWmz0l-124" value="数据治理" style="text;html=1;strokeColor=none;fillColor=none;align=left;verticalAlign=middle;whiteSpace=wrap;rounded=0;shadow=0;glass=0;sketch=0;" parent="1" vertex="1">
          <mxGeometry x="250" y="990" width="90" height="20" as="geometry" />
        </mxCell>
        <mxCell id="p0RphQzrw04diFdu5ErW-1" value="" style="rounded=0;whiteSpace=wrap;html=1;strokeWidth=1;fillColor=none;fontSize=10;strokeColor=#666666;dashed=1;" vertex="1" parent="1">
          <mxGeometry x="-40" y="2420" width="770" height="60" as="geometry" />
        </mxCell>
        <mxCell id="p0RphQzrw04diFdu5ErW-2" value="" style="rounded=0;whiteSpace=wrap;html=1;fontSize=10;fillColor=none;strokeWidth=1;strokeColor=#666666;dashed=1;" vertex="1" parent="1">
          <mxGeometry x="-40" y="2500" width="770" height="310" as="geometry" />
        </mxCell>
        <mxCell id="p0RphQzrw04diFdu5ErW-3" value="数据湖" style="rounded=0;whiteSpace=wrap;html=1;fillColor=#d5e8d4;strokeColor=none;" vertex="1" parent="1">
          <mxGeometry x="-22" y="2670" width="410" height="120" as="geometry" />
        </mxCell>
        <mxCell id="p0RphQzrw04diFdu5ErW-4" value="读取" style="rounded=0;whiteSpace=wrap;html=1;fillColor=#dae8fc;strokeColor=none;" vertex="1" parent="1">
          <mxGeometry x="-21" y="2520" width="310" height="30" as="geometry" />
        </mxCell>
        <mxCell id="p0RphQzrw04diFdu5ErW-5" value="写入" style="rounded=0;whiteSpace=wrap;html=1;fillColor=#f8cecc;strokeColor=none;" vertex="1" parent="1">
          <mxGeometry x="298" y="2520" width="90" height="30" as="geometry" />
        </mxCell>
        <mxCell id="p0RphQzrw04diFdu5ErW-6" value="实时数据" style="rounded=0;whiteSpace=wrap;html=1;fillColor=#b1ddf0;strokeColor=none;" vertex="1" parent="1">
          <mxGeometry x="-21" y="2560" width="230" height="30" as="geometry" />
        </mxCell>
        <mxCell id="p0RphQzrw04diFdu5ErW-7" value="历史数据" style="rounded=0;whiteSpace=wrap;html=1;fillColor=#d0cee2;strokeColor=none;" vertex="1" parent="1">
          <mxGeometry x="219" y="2560" width="70" height="30" as="geometry" />
        </mxCell>
        <mxCell id="p0RphQzrw04diFdu5ErW-8" value="gRPC" style="rounded=0;whiteSpace=wrap;html=1;fontSize=10;fillColor=#cdeb8b;strokeColor=none;" vertex="1" parent="1">
          <mxGeometry x="220" y="2600" width="70" height="30" as="geometry" />
        </mxCell>
        <mxCell id="p0RphQzrw04diFdu5ErW-9" value="gRPC" style="rounded=0;whiteSpace=wrap;html=1;fontSize=10;fillColor=#cdeb8b;strokeColor=none;" vertex="1" parent="1">
          <mxGeometry x="-20" y="2600" width="70" height="30" as="geometry" />
        </mxCell>
        <mxCell id="p0RphQzrw04diFdu5ErW-10" value="RESTful" style="rounded=0;whiteSpace=wrap;html=1;fontSize=10;fillColor=#fff2cc;strokeColor=none;" vertex="1" parent="1">
          <mxGeometry x="60" y="2600" width="70" height="30" as="geometry" />
        </mxCell>
        <mxCell id="p0RphQzrw04diFdu5ErW-11" value="WebSocket" style="rounded=0;whiteSpace=wrap;html=1;fontSize=10;fillColor=#ffff88;strokeColor=none;" vertex="1" parent="1">
          <mxGeometry x="140" y="2600" width="70" height="30" as="geometry" />
        </mxCell>
        <mxCell id="p0RphQzrw04diFdu5ErW-12" value="gRPC" style="rounded=0;whiteSpace=wrap;html=1;fontSize=10;fillColor=#cdeb8b;strokeColor=none;" vertex="1" parent="1">
          <mxGeometry x="299" y="2600" width="90" height="30" as="geometry" />
        </mxCell>
        <mxCell id="p0RphQzrw04diFdu5ErW-13" value="" style="rounded=0;whiteSpace=wrap;html=1;fontSize=10;dashed=1;" vertex="1" parent="1">
          <mxGeometry x="409" y="2520" width="300" height="30" as="geometry" />
        </mxCell>
        <mxCell id="p0RphQzrw04diFdu5ErW-14" value="网关" style="rounded=0;whiteSpace=wrap;html=1;fillColor=#bac8d3;strokeColor=none;" vertex="1" parent="1">
          <mxGeometry x="-21" y="2435" width="731" height="30" as="geometry" />
        </mxCell>
        <mxCell id="p0RphQzrw04diFdu5ErW-15" value="" style="group" vertex="1" connectable="0" parent="1">
          <mxGeometry x="409" y="2670" width="300" height="120" as="geometry" />
        </mxCell>
        <mxCell id="p0RphQzrw04diFdu5ErW-16" value="" style="rounded=0;whiteSpace=wrap;html=1;dashed=1;" vertex="1" parent="p0RphQzrw04diFdu5ErW-15">
          <mxGeometry width="300" height="120" as="geometry" />
        </mxCell>
        <mxCell id="p0RphQzrw04diFdu5ErW-17" value="" style="shape=cylinder3;whiteSpace=wrap;html=1;boundedLbl=1;backgroundOutline=1;size=15;dashed=1;" vertex="1" parent="p0RphQzrw04diFdu5ErW-15">
          <mxGeometry x="120" y="38" width="60" height="60" as="geometry" />
        </mxCell>
        <mxCell id="p0RphQzrw04diFdu5ErW-18" value="" style="shape=cylinder3;whiteSpace=wrap;html=1;boundedLbl=1;backgroundOutline=1;size=15;dashed=1;" vertex="1" parent="p0RphQzrw04diFdu5ErW-15">
          <mxGeometry x="40" y="38" width="60" height="60" as="geometry" />
        </mxCell>
        <mxCell id="p0RphQzrw04diFdu5ErW-19" value="" style="shape=cylinder3;whiteSpace=wrap;html=1;boundedLbl=1;backgroundOutline=1;size=15;dashed=1;" vertex="1" parent="p0RphQzrw04diFdu5ErW-15">
          <mxGeometry x="200" y="38" width="60" height="60" as="geometry" />
        </mxCell>
        <mxCell id="p0RphQzrw04diFdu5ErW-20" value="数据仓库" style="text;html=1;strokeColor=none;fillColor=none;align=center;verticalAlign=middle;whiteSpace=wrap;rounded=0;" vertex="1" parent="p0RphQzrw04diFdu5ErW-15">
          <mxGeometry x="105" y="10" width="90" height="20" as="geometry" />
        </mxCell>
        <mxCell id="p0RphQzrw04diFdu5ErW-21" value="实时数据" style="rounded=0;whiteSpace=wrap;html=1;fillColor=#b1ddf0;strokeColor=none;" vertex="1" parent="1">
          <mxGeometry x="298" y="2560" width="90" height="30" as="geometry" />
        </mxCell>
      </root>
    </mxGraphModel>
  </diagram>
</mxfile>
